<svg xmlns="http://www.w3.org/2000/svg" width="51" height="32" viewBox="0 0 51 32" fill="none">
    <path d="M0.02 7.5L3.22 0.5H3.95L7.15 7.5H6.37L3.43 0.93H3.73L0.79 7.5H0.02ZM1.28 5.63L1.5 5.03H5.57L5.79 5.63H1.28ZM8.30797 7.5V0.5H10.928C11.5213 0.5 12.0313 0.596666 12.458 0.79C12.8846 0.976667 13.2113 1.25 13.438 1.61C13.6713 1.96333 13.788 2.39333 13.788 2.9C13.788 3.39333 13.6713 3.82 13.438 4.18C13.2113 4.53333 12.8846 4.80667 12.458 5C12.0313 5.18667 11.5213 5.28 10.928 5.28H8.71797L9.04797 4.94V7.5H8.30797ZM13.088 7.5L11.288 4.96H12.088L13.898 7.5H13.088ZM9.04797 5L8.71797 4.65H10.908C11.608 4.65 12.138 4.49667 12.498 4.19C12.8646 3.88333 13.048 3.45333 13.048 2.9C13.048 2.34 12.8646 1.90667 12.498 1.6C12.138 1.29333 11.608 1.14 10.908 1.14H8.71797L9.04797 0.79V5ZM16.7969 7.5V1.14H14.3369V0.5H19.9969V1.14H17.5369V7.5H16.7969ZM1.14 19.5V12.5H1.88V19.5H1.14ZM4.15758 19.5V12.5H4.76758L9.59758 18.58H9.27758V12.5H10.0076V19.5H9.39758L4.57758 13.42H4.89758V19.5H4.15758ZM14.2223 19.56C13.7023 19.56 13.2023 19.4767 12.7223 19.31C12.249 19.1367 11.8823 18.9167 11.6223 18.65L11.9123 18.08C12.159 18.32 12.489 18.5233 12.9023 18.69C13.3223 18.85 13.7623 18.93 14.2223 18.93C14.6623 18.93 15.019 18.8767 15.2923 18.77C15.5723 18.6567 15.7757 18.5067 15.9023 18.32C16.0357 18.1333 16.1023 17.9267 16.1023 17.7C16.1023 17.4267 16.0223 17.2067 15.8623 17.04C15.709 16.8733 15.5057 16.7433 15.2523 16.65C14.999 16.55 14.719 16.4633 14.4123 16.39C14.1057 16.3167 13.799 16.24 13.4923 16.16C13.1857 16.0733 12.9023 15.96 12.6423 15.82C12.389 15.68 12.1823 15.4967 12.0223 15.27C11.869 15.0367 11.7923 14.7333 11.7923 14.36C11.7923 14.0133 11.8823 13.6967 12.0623 13.41C12.249 13.1167 12.5323 12.8833 12.9123 12.71C13.2923 12.53 13.779 12.44 14.3723 12.44C14.7657 12.44 15.1557 12.4967 15.5423 12.61C15.929 12.7167 16.2623 12.8667 16.5423 13.06L16.2923 13.65C15.9923 13.45 15.6723 13.3033 15.3323 13.21C14.999 13.1167 14.6757 13.07 14.3623 13.07C13.9423 13.07 13.5957 13.1267 13.3223 13.24C13.049 13.3533 12.8457 13.5067 12.7123 13.7C12.5857 13.8867 12.5223 14.1 12.5223 14.34C12.5223 14.6133 12.599 14.8333 12.7523 15C12.9123 15.1667 13.119 15.2967 13.3723 15.39C13.6323 15.4833 13.9157 15.5667 14.2223 15.64C14.529 15.7133 14.8323 15.7933 15.1323 15.88C15.439 15.9667 15.719 16.08 15.9723 16.22C16.2323 16.3533 16.439 16.5333 16.5923 16.76C16.7523 16.9867 16.8323 17.2833 16.8323 17.65C16.8323 17.99 16.739 18.3067 16.5523 18.6C16.3657 18.8867 16.079 19.12 15.6923 19.3C15.3123 19.4733 14.8223 19.56 14.2223 19.56ZM19.707 19.5V13.14H17.247V12.5H22.907V13.14H20.447V19.5H19.707ZM24.0892 19.5V12.5H24.8292V19.5H24.0892ZM28.4668 19.5V13.14H26.0068V12.5H31.6668V13.14H29.2068V19.5H28.4668ZM34.7902 19.5L31.6902 12.5H32.4902L35.3902 19.09H34.9502L37.8702 12.5H38.6202L35.5202 19.5H34.7902ZM41.0938 19.5V13.14H38.6338V12.5H44.2938V13.14H41.8338V19.5H41.0938ZM46.1359 15.63H49.8359V16.26H46.1359V15.63ZM46.2159 18.86H50.4259V19.5H45.4759V12.5H50.2759V13.14H46.2159V18.86ZM4.18 31.56C3.65333 31.56 3.16667 31.4733 2.72 31.3C2.27333 31.12 1.88667 30.87 1.56 30.55C1.23333 30.23 0.976667 29.8533 0.79 29.42C0.61 28.9867 0.52 28.5133 0.52 28C0.52 27.4867 0.61 27.0133 0.79 26.58C0.976667 26.1467 1.23333 25.77 1.56 25.45C1.89333 25.13 2.28333 24.8833 2.73 24.71C3.17667 24.53 3.66333 24.44 4.19 24.44C4.69667 24.44 5.17333 24.5267 5.62 24.7C6.06667 24.8667 6.44333 25.12 6.75 25.46L6.28 25.93C5.99333 25.6367 5.67667 25.4267 5.33 25.3C4.98333 25.1667 4.61 25.1 4.21 25.1C3.79 25.1 3.4 25.1733 3.04 25.32C2.68 25.46 2.36667 25.6633 2.1 25.93C1.83333 26.19 1.62333 26.4967 1.47 26.85C1.32333 27.1967 1.25 27.58 1.25 28C1.25 28.42 1.32333 28.8067 1.47 29.16C1.62333 29.5067 1.83333 29.8133 2.1 30.08C2.36667 30.34 2.68 30.5433 3.04 30.69C3.4 30.83 3.79 30.9 4.21 30.9C4.61 30.9 4.98333 30.8333 5.33 30.7C5.67667 30.5667 5.99333 30.3533 6.28 30.06L6.75 30.53C6.44333 30.87 6.06667 31.1267 5.62 31.3C5.17333 31.4733 4.69333 31.56 4.18 31.56ZM13.4475 24.5H14.1775V31.5H13.4475V24.5ZM9.0675 31.5H8.3275V24.5H9.0675V31.5ZM13.5175 28.27H8.9875V27.62H13.5175V28.27ZM16.4623 31.5V24.5H17.2023V31.5H16.4623ZM22.5198 31.56C21.9932 31.56 21.5065 31.4733 21.0598 31.3C20.6132 31.12 20.2265 30.87 19.8998 30.55C19.5732 30.23 19.3165 29.8533 19.1298 29.42C18.9498 28.9867 18.8598 28.5133 18.8598 28C18.8598 27.4867 18.9498 27.0133 19.1298 26.58C19.3165 26.1467 19.5732 25.77 19.8998 25.45C20.2332 25.13 20.6232 24.8833 21.0698 24.71C21.5165 24.53 22.0032 24.44 22.5298 24.44C23.0365 24.44 23.5132 24.5267 23.9598 24.7C24.4065 24.8667 24.7832 25.12 25.0898 25.46L24.6198 25.93C24.3332 25.6367 24.0165 25.4267 23.6698 25.3C23.3232 25.1667 22.9498 25.1 22.5498 25.1C22.1298 25.1 21.7398 25.1733 21.3798 25.32C21.0198 25.46 20.7065 25.6633 20.4398 25.93C20.1732 26.19 19.9632 26.4967 19.8098 26.85C19.6632 27.1967 19.5898 27.58 19.5898 28C19.5898 28.42 19.6632 28.8067 19.8098 29.16C19.9632 29.5067 20.1732 29.8133 20.4398 30.08C20.7065 30.34 21.0198 30.5433 21.3798 30.69C21.7398 30.83 22.1298 30.9 22.5498 30.9C22.9498 30.9 23.3232 30.8333 23.6698 30.7C24.0165 30.5667 24.3332 30.3533 24.6198 30.06L25.0898 30.53C24.7832 30.87 24.4065 31.1267 23.9598 31.3C23.5132 31.4733 23.0332 31.56 22.5198 31.56ZM25.3716 31.5L28.5716 24.5H29.3016L32.5016 31.5H31.7216L28.7816 24.93H29.0816L26.1416 31.5H25.3716ZM26.6316 29.63L26.8516 29.03H30.9216L31.1416 29.63H26.6316ZM36.6319 31.56C36.0985 31.56 35.6052 31.4733 35.1519 31.3C34.7052 31.12 34.3152 30.87 33.9819 30.55C33.6552 30.23 33.3985 29.8533 33.2119 29.42C33.0319 28.9867 32.9419 28.5133 32.9419 28C32.9419 27.4867 33.0319 27.0133 33.2119 26.58C33.3985 26.1467 33.6585 25.77 33.9919 25.45C34.3252 25.13 34.7152 24.8833 35.1619 24.71C35.6152 24.53 36.1085 24.44 36.6419 24.44C37.1752 24.44 37.6619 24.5233 38.1019 24.69C38.5485 24.8567 38.9285 25.11 39.2419 25.45L38.7819 25.92C38.4885 25.6267 38.1652 25.4167 37.8119 25.29C37.4585 25.1633 37.0785 25.1 36.6719 25.1C36.2385 25.1 35.8385 25.1733 35.4719 25.32C35.1119 25.46 34.7952 25.6633 34.5219 25.93C34.2552 26.19 34.0452 26.4967 33.8919 26.85C33.7452 27.1967 33.6719 27.58 33.6719 28C33.6719 28.4133 33.7452 28.7967 33.8919 29.15C34.0452 29.5033 34.2552 29.8133 34.5219 30.08C34.7952 30.34 35.1119 30.5433 35.4719 30.69C35.8385 30.83 36.2352 30.9 36.6619 30.9C37.0619 30.9 37.4385 30.84 37.7919 30.72C38.1519 30.6 38.4819 30.3967 38.7819 30.11L39.2019 30.67C38.8685 30.9633 38.4785 31.1867 38.0319 31.34C37.5852 31.4867 37.1185 31.56 36.6319 31.56ZM38.4919 30.58V28H39.2019V30.67L38.4919 30.58ZM44.3563 31.56C43.8296 31.56 43.3396 31.4733 42.8863 31.3C42.4396 31.12 42.0496 30.87 41.7163 30.55C41.3896 30.2233 41.1329 29.8467 40.9463 29.42C40.7663 28.9867 40.6763 28.5133 40.6763 28C40.6763 27.4867 40.7663 27.0167 40.9463 26.59C41.1329 26.1567 41.3896 25.78 41.7163 25.46C42.0496 25.1333 42.4396 24.8833 42.8863 24.71C43.3329 24.53 43.8229 24.44 44.3563 24.44C44.8829 24.44 45.3696 24.53 45.8163 24.71C46.2629 24.8833 46.6496 25.13 46.9763 25.45C47.3096 25.77 47.5663 26.1467 47.7463 26.58C47.9329 27.0133 48.0263 27.4867 48.0263 28C48.0263 28.5133 47.9329 28.9867 47.7463 29.42C47.5663 29.8533 47.3096 30.23 46.9763 30.55C46.6496 30.87 46.2629 31.12 45.8163 31.3C45.3696 31.4733 44.8829 31.56 44.3563 31.56ZM44.3563 30.9C44.7763 30.9 45.1629 30.83 45.5163 30.69C45.8763 30.5433 46.1863 30.34 46.4463 30.08C46.7129 29.8133 46.9196 29.5067 47.0663 29.16C47.2129 28.8067 47.2863 28.42 47.2863 28C47.2863 27.58 47.2129 27.1967 47.0663 26.85C46.9196 26.4967 46.7129 26.19 46.4463 25.93C46.1863 25.6633 45.8763 25.46 45.5163 25.32C45.1629 25.1733 44.7763 25.1 44.3563 25.1C43.9363 25.1 43.5463 25.1733 43.1863 25.32C42.8263 25.46 42.5129 25.6633 42.2463 25.93C41.9863 26.19 41.7796 26.4967 41.6262 26.85C41.4796 27.1967 41.4062 27.58 41.4062 28C41.4062 28.4133 41.4796 28.7967 41.6262 29.15C41.7796 29.5033 41.9863 29.8133 42.2463 30.08C42.5129 30.34 42.8263 30.5433 43.1863 30.69C43.5463 30.83 43.9363 30.9 44.3563 30.9Z" fill="black"/>
</svg>